<svg width="27" height="27" viewBox="0 0 27 27" fill="none" xmlns="http://www.w3.org/2000/svg">
<path fill-rule="evenodd" clip-rule="evenodd" d="M5.625 4.5C5.32663 4.5 5.04048 4.61853 4.8295 4.8295C4.61853 5.04048 4.5 5.32663 4.5 5.625V21.375C4.5 21.6734 4.61853 21.9595 4.8295 22.1705C5.04048 22.3815 5.32663 22.5 5.625 22.5H21.375C21.6734 22.5 21.9595 22.3815 22.1705 22.1705C22.3815 21.9595 22.5 21.6734 22.5 21.375V15.4541C22.5 15.1558 22.6185 14.8696 22.8295 14.6586C23.0405 14.4477 23.3266 14.3291 23.625 14.3291C23.9234 14.3291 24.2095 14.4477 24.4205 14.6586C24.6315 14.8696 24.75 15.1558 24.75 15.4541V21.375C24.75 22.2701 24.3944 23.1286 23.7615 23.7615C23.1286 24.3944 22.2701 24.75 21.375 24.75H5.625C4.72989 24.75 3.87145 24.3944 3.23851 23.7615C2.60558 23.1286 2.25 22.2701 2.25 21.375V5.625C2.25 4.72989 2.60558 3.87145 3.23851 3.23851C3.87145 2.60558 4.72989 2.25 5.625 2.25H11.2691C11.5675 2.25 11.8536 2.36853 12.0646 2.5795C12.2756 2.79048 12.3941 3.07663 12.3941 3.375C12.3941 3.67337 12.2756 3.95952 12.0646 4.1705C11.8536 4.38147 11.5675 4.5 11.2691 4.5H5.625Z" fill="#012C53"/>
<path fill-rule="evenodd" clip-rule="evenodd" d="M24.0873 2.89348C24.2898 3.09656 24.4035 3.37167 24.4035 3.65848C24.4035 3.94529 24.2898 4.22039 24.0873 4.42348L14.2188 14.3077C14.1185 14.4081 13.9994 14.4877 13.8683 14.542C13.7372 14.5963 13.5968 14.6243 13.4549 14.6243C13.313 14.6243 13.1725 14.5963 13.0415 14.542C12.9104 14.4877 12.7913 14.4081 12.691 14.3077C12.4885 14.1046 12.3748 13.8295 12.3748 13.5427C12.3748 13.2559 12.4885 12.9808 12.691 12.7777L22.5606 2.89348C22.7631 2.69116 23.0377 2.57751 23.3239 2.57751C23.6102 2.57751 23.8847 2.69116 24.0873 2.89348Z" fill="#012C53"/>
<path fill-rule="evenodd" clip-rule="evenodd" d="M23.67 2.25C24.2663 2.25 24.75 2.73375 24.75 3.33225V9C24.75 9.59737 24.2213 10.125 23.625 10.125C23.0287 10.125 22.5 9.59737 22.5 9V4.5H18C17.4038 4.5 16.875 3.97238 16.875 3.375C16.875 2.77762 17.3588 2.25 17.955 2.25H23.67Z" fill="#012C53"/>
</svg>
