<svg width="19" height="27" viewBox="0 0 19 27" fill="none" xmlns="http://www.w3.org/2000/svg">
<path d="M5.00011 9.25031C3.87291 9.25031 2.79188 8.80253 1.99483 8.00547C1.19778 7.20841 0.75 6.12737 0.75 5.00016C0.75 3.87294 1.19778 2.7919 1.99483 1.99484C2.79188 1.19778 3.87291 0.75 5.00011 0.75H9.24958V9.25031M5.00011 9.25031H9.24958M5.00011 9.25031C3.87308 9.25031 2.79221 9.69803 1.99528 10.495C1.19835 11.2919 0.750638 12.3728 0.750638 13.4998C0.750638 14.6269 1.19835 15.7078 1.99528 16.5047C2.79221 17.3016 3.87308 17.7493 5.00011 17.7493H9.24958V9.25031" stroke="#51A2FF" stroke-width="1.5"/>
<path d="M17.7501 13.4998C17.7501 14.627 17.3024 15.708 16.5053 16.5051C15.7083 17.3022 14.6272 17.7499 13.5 17.7499C12.3728 17.7499 11.2918 17.3022 10.4948 16.5051C9.6977 15.708 9.24993 14.627 9.24993 13.4998C9.24993 12.3726 9.6977 11.2915 10.4948 10.4945C11.2918 9.69742 12.3728 9.24963 13.5 9.24963C14.6272 9.24963 15.7083 9.69742 16.5053 10.4945C17.3024 11.2915 17.7501 12.3726 17.7501 13.4998ZM5.00045 17.7506H9.24993V22.0001C9.24967 22.8405 9.00023 23.662 8.53314 24.3607C8.06605 25.0593 7.40228 25.6038 6.62577 25.9252C5.84926 26.2467 4.99487 26.3306 4.17064 26.1665C3.34641 26.0024 2.58934 25.5976 1.99517 25.0032C1.401 24.4089 0.996401 23.6517 0.832538 22.8274C0.668674 22.0031 0.752902 21.1487 1.07457 20.3723C1.39624 19.5959 1.94091 18.9323 2.6397 18.4654C3.3385 17.9985 4.16004 17.7506 5.00045 17.7506Z" stroke="#51A2FF" stroke-width="1.5"/>
<path d="M9.24951 0.75H13.499C14.6262 0.75 15.7072 1.19778 16.5043 1.99484C17.3013 2.7919 17.7491 3.87294 17.7491 5.00016C17.7491 6.12737 17.3013 7.20841 16.5043 8.00547C15.7072 8.80253 14.6262 9.25031 13.499 9.25031H9.24951V0.75Z" stroke="#51A2FF" stroke-width="1.5"/>
</svg>
