<svg width="30" height="30" viewBox="0 0 30 30" fill="none" xmlns="http://www.w3.org/2000/svg">
<path d="M18.7502 27.5V22.5C18.9241 20.9341 18.4751 19.3627 17.5002 18.125C21.2502 18.125 25.0002 15.625 25.0002 11.25C25.1002 9.6875 24.6627 8.15 23.7502 6.875C24.1002 5.4375 24.1002 3.9375 23.7502 2.5C23.7502 2.5 22.5002 2.5 20.0002 4.375C16.7002 3.75 13.3002 3.75 10.0002 4.375C7.50023 2.5 6.25023 2.5 6.25023 2.5C5.87523 3.9375 5.87523 5.4375 6.25023 6.875C5.34007 8.14485 4.89832 9.69098 5.00023 11.25C5.00023 15.625 8.75023 18.125 12.5002 18.125C12.0127 18.7375 11.6502 19.4375 11.4377 20.1875C11.2252 20.9375 11.1627 21.725 11.2502 22.5V27.5" stroke="#51A2FF" stroke-width="2" stroke-linecap="round" stroke-linejoin="round"/>
<path d="M11.25 22.5C5.6125 25 5 20 2.5 20" stroke="#51A2FF" stroke-width="2" stroke-linecap="round" stroke-linejoin="round"/>
</svg>
