<svg width="28" height="28" viewBox="0 0 28 28" fill="none" xmlns="http://www.w3.org/2000/svg">
<path d="M11.6665 2.33331V4.66665" stroke="#51A2FF" stroke-width="2.33333" stroke-linecap="round" stroke-linejoin="round"/>
<path d="M16.3335 2.33331V4.66665" stroke="#51A2FF" stroke-width="2.33333" stroke-linecap="round" stroke-linejoin="round"/>
<path d="M18.6667 9.33331C18.9761 9.33331 19.2728 9.45623 19.4916 9.67502C19.7104 9.89381 19.8333 10.1906 19.8333 10.5V19.8333C19.8333 21.071 19.3417 22.258 18.4665 23.1331C17.5913 24.0083 16.4043 24.5 15.1667 24.5H8.16667C6.92899 24.5 5.742 24.0083 4.86683 23.1331C3.99167 22.258 3.5 21.071 3.5 19.8333V10.5C3.5 10.1906 3.62292 9.89381 3.84171 9.67502C4.0605 9.45623 4.35725 9.33331 4.66667 9.33331H21C22.2377 9.33331 23.4247 9.82498 24.2998 10.7001C25.175 11.5753 25.6667 12.7623 25.6667 14C25.6667 15.2377 25.175 16.4246 24.2998 17.2998C23.4247 18.175 22.2377 18.6666 21 18.6666H19.8333" stroke="#51A2FF" stroke-width="2.33333" stroke-linecap="round" stroke-linejoin="round"/>
<path d="M7 2.33331V4.66665" stroke="#51A2FF" stroke-width="2.33333" stroke-linecap="round" stroke-linejoin="round"/>
</svg>
