<svg width="40" height="40" viewBox="0 0 40 40" fill="none" xmlns="http://www.w3.org/2000/svg">
<mask id="path-1-inside-1_157_596" fill="white">
<path d="M0 10C0 4.47715 4.47715 0 10 0H30C35.5228 0 40 4.47715 40 10V30C40 35.5228 35.5228 40 30 40H10C4.47715 40 0 35.5228 0 30V10Z"/>
</mask>
<path d="M0 10C0 4.47715 4.47715 0 10 0H30C35.5228 0 40 4.47715 40 10V30C40 35.5228 35.5228 40 30 40H10C4.47715 40 0 35.5228 0 30V10Z" fill="#262626" fill-opacity="0.3"/>
<path d="M10 0V1H30V0V-1H10V0ZM40 10H39V30H40H41V10H40ZM30 40V39H10V40V41H30V40ZM0 30H1V10H0H-1V30H0ZM10 40V39C5.02944 39 1 34.9706 1 30H0H-1C-1 36.0751 3.92487 41 10 41V40ZM40 30H39C39 34.9706 34.9706 39 30 39V40V41C36.0751 41 41 36.0751 41 30H40ZM30 0V1C34.9706 1 39 5.02944 39 10H40H41C41 3.92487 36.0751 -1 30 -1V0ZM10 0V-1C3.92487 -1 -1 3.92487 -1 10H0H1C1 5.02944 5.02944 1 10 1V0Z" fill="white" fill-opacity="0.2" mask="url(#path-1-inside-1_157_596)"/>
<path d="M10.4375 7.9375L13.25 10.75V14.5M28.5625 7.9375L25.75 10.75V14.5M19.5 7.9375V13.25M10.4375 8.875C10.5606 8.875 10.6825 8.85075 10.7963 8.80364C10.91 8.75652 11.0134 8.68747 11.1004 8.60041C11.1875 8.51336 11.2565 8.41001 11.3036 8.29627C11.3508 8.18252 11.375 8.06061 11.375 7.9375C11.375 7.81439 11.3508 7.69248 11.3036 7.57873C11.2565 7.46499 11.1875 7.36164 11.1004 7.27459C11.0134 7.18753 10.91 7.11848 10.7963 7.07136C10.6825 7.02425 10.5606 7 10.4375 7C10.1889 7 9.9504 7.09877 9.77459 7.27459C9.59877 7.4504 9.5 7.68886 9.5 7.9375C9.5 8.18614 9.59877 8.4246 9.77459 8.60041C9.9504 8.77623 10.1889 8.875 10.4375 8.875ZM28.5625 8.875C28.4394 8.875 28.3175 8.85075 28.2037 8.80364C28.09 8.75652 27.9866 8.68747 27.8996 8.60041C27.8125 8.51336 27.7435 8.41001 27.6964 8.29627C27.6492 8.18252 27.625 8.06061 27.625 7.9375C27.625 7.81439 27.6492 7.69248 27.6964 7.57873C27.7435 7.46499 27.8125 7.36164 27.8996 7.27459C27.9866 7.18753 28.09 7.11848 28.2037 7.07136C28.3175 7.02425 28.4394 7 28.5625 7C28.8111 7 29.0496 7.09877 29.2254 7.27459C29.4012 7.4504 29.5 7.68886 29.5 7.9375C29.5 8.18614 29.4012 8.4246 29.2254 8.60041C29.0496 8.77623 28.8111 8.875 28.5625 8.875ZM19.5 8.875C19.6231 8.875 19.745 8.85075 19.8588 8.80364C19.9725 8.75652 20.0759 8.68747 20.1629 8.60041C20.25 8.51336 20.319 8.41001 20.3661 8.29627C20.4133 8.18252 20.4375 8.06061 20.4375 7.9375C20.4375 7.81439 20.4133 7.69248 20.3661 7.57873C20.319 7.46499 20.25 7.36164 20.1629 7.27459C20.0759 7.18753 19.9725 7.11848 19.8588 7.07136C19.745 7.02425 19.6231 7 19.5 7C19.2514 7 19.0129 7.09877 18.8371 7.27459C18.6613 7.4504 18.5625 7.68886 18.5625 7.9375C18.5625 8.18614 18.6613 8.4246 18.8371 8.60041C19.0129 8.77623 19.2514 8.875 19.5 8.875Z" stroke="#51A2FF" stroke-width="2" stroke-linecap="round" stroke-linejoin="round"/>
<path d="M23.25 24.5C23.25 23.5054 22.8549 22.5516 22.1517 21.8483C21.4484 21.1451 20.4946 20.75 19.5 20.75C18.5054 20.75 17.5516 21.1451 16.8483 21.8483C16.1451 22.5516 15.75 23.5054 15.75 24.5C15.75 25.4946 16.1451 26.4484 16.8483 27.1517C17.5516 27.8549 18.5054 28.25 19.5 28.25C20.4946 28.25 21.4484 27.8549 22.1517 27.1517C22.8549 26.4484 23.25 25.4946 23.25 24.5Z" stroke="#51A2FF" stroke-width="2"/>
<path d="M19.5 17C27 17 32 24.5 32 24.5C32 24.5 27 32 19.5 32C12 32 7 24.5 7 24.5C7 24.5 12 17 19.5 17Z" stroke="#51A2FF" stroke-width="2" stroke-linejoin="round"/>
</svg>
