<svg width="19" height="19" viewBox="0 0 19 19" fill="none" xmlns="http://www.w3.org/2000/svg">
<path fill-rule="evenodd" clip-rule="evenodd" d="M2.85 1.9C2.59804 1.9 2.35641 2.00009 2.17825 2.17825C2.00009 2.35641 1.9 2.59804 1.9 2.85V16.15C1.9 16.402 2.00009 16.6436 2.17825 16.8218C2.35641 16.9999 2.59804 17.1 2.85 17.1H16.15C16.402 17.1 16.6436 16.9999 16.8218 16.8218C16.9999 16.6436 17.1 16.402 17.1 16.15V11.1502C17.1 10.8982 17.2001 10.6566 17.3782 10.4784C17.5564 10.3002 17.798 10.2002 18.05 10.2002C18.302 10.2002 18.5436 10.3002 18.7218 10.4784C18.8999 10.6566 19 10.8982 19 11.1502V16.15C19 16.9059 18.6997 17.6308 18.1653 18.1653C17.6308 18.6997 16.9059 19 16.15 19H2.85C2.09413 19 1.36922 18.6997 0.834746 18.1653C0.300267 17.6308 0 16.9059 0 16.15V2.85C0 2.09413 0.300267 1.36922 0.834746 0.834746C1.36922 0.300267 2.09413 0 2.85 0H7.61615C7.86811 0 8.10974 0.100089 8.2879 0.278249C8.46606 0.456408 8.56615 0.698044 8.56615 0.95C8.56615 1.20196 8.46606 1.44359 8.2879 1.62175C8.10974 1.79991 7.86811 1.9 7.61615 1.9H2.85Z" fill="#51A2FF"/>
<path fill-rule="evenodd" clip-rule="evenodd" d="M18.4408 0.543424C18.6119 0.714918 18.7079 0.94723 18.7079 1.18942C18.7079 1.43162 18.6119 1.66393 18.4408 1.83542L10.1075 10.1821C10.0228 10.2669 9.9222 10.3341 9.81152 10.3799C9.70084 10.4258 9.58221 10.4494 9.4624 10.4494C9.3426 10.4494 9.22396 10.4258 9.11328 10.3799C9.0026 10.3341 8.90204 10.2669 8.81735 10.1821C8.64633 10.0106 8.55029 9.77832 8.55029 9.53612C8.55029 9.29393 8.64633 9.06162 8.81735 8.89012L17.1517 0.543424C17.3227 0.372578 17.5545 0.276611 17.7963 0.276611C18.038 0.276611 18.2698 0.372578 18.4408 0.543424Z" fill="#51A2FF"/>
<path fill-rule="evenodd" clip-rule="evenodd" d="M18.0881 0C18.5916 0 19.0001 0.4085 19.0001 0.9139V5.7C19.0001 6.20445 18.5536 6.65 18.0501 6.65C17.5466 6.65 17.1001 6.20445 17.1001 5.7V1.9H13.3001C12.7966 1.9 12.3501 1.45445 12.3501 0.95C12.3501 0.44555 12.7586 0 13.2621 0H18.0881Z" fill="#51A2FF"/>
</svg>
