<svg width="27" height="27" viewBox="0 0 27 27" fill="none" xmlns="http://www.w3.org/2000/svg">
<path d="M0.75 13.25C0.75 16.5652 2.06696 19.7446 4.41117 22.0888C6.75537 24.433 9.93479 25.75 13.25 25.75C16.5652 25.75 19.7446 24.433 22.0888 22.0888C24.433 19.7446 25.75 16.5652 25.75 13.25C25.75 9.93479 24.433 6.75537 22.0888 4.41117C19.7446 2.06696 16.5652 0.75 13.25 0.75C9.93479 0.75 6.75537 2.06696 4.41117 4.41117C2.06696 6.75537 0.75 9.93479 0.75 13.25Z" stroke="white" stroke-width="1.5" stroke-linejoin="round"/>
<path d="M7.89307 13.25C7.89307 9.93479 8.45748 6.75537 9.46214 4.41117C10.4668 2.06696 11.8294 0.75 13.2502 0.75C14.671 0.75 16.0336 2.06696 17.0383 4.41117C18.0429 6.75537 18.6074 9.93479 18.6074 13.25C18.6074 16.5652 18.0429 19.7446 17.0383 22.0888C16.0336 24.433 14.671 25.75 13.2502 25.75C11.8294 25.75 10.4668 24.433 9.46214 22.0888C8.45748 19.7446 7.89307 16.5652 7.89307 13.25Z" stroke="white" stroke-width="1.5" stroke-linejoin="round"/>
<path d="M1.64307 17.4166H24.8574M1.64307 9.08331H24.8574" stroke="white" stroke-width="1.5" stroke-linecap="round"/>
</svg>
