<svg width="48" height="48" viewBox="0 0 48 48" fill="none" xmlns="http://www.w3.org/2000/svg">
<g filter="url(#filter0_d_61_918)">
<path d="M4 40L6.81166 29.7283C5.07666 26.7217 4.165 23.3133 4.16667 19.8183C4.17167 8.89167 13.0633 0 23.9883 0C29.2899 0.00166667 34.2666 2.06667 38.0099 5.81333C41.7516 9.56 43.8116 14.54 43.8099 19.8367C43.8049 30.765 34.9133 39.6567 23.9883 39.6567C20.6716 39.655 17.4033 38.8233 14.5083 37.2433L4 40ZM14.995 33.655C17.7883 35.3133 20.455 36.3067 23.9816 36.3083C33.0616 36.3083 40.4583 28.9183 40.4633 19.8333C40.4666 10.73 33.1049 3.35 23.995 3.34667C14.9083 3.34667 7.51666 10.7367 7.51333 19.82C7.51166 23.5283 8.59832 26.305 10.4233 29.21L8.75832 35.29L14.995 33.655ZM33.9733 24.5483C33.8499 24.3417 33.5199 24.2183 33.0233 23.97C32.5283 23.7217 30.0933 22.5233 29.6383 22.3583C29.1849 22.1933 28.8549 22.11 28.5233 22.6067C28.1933 23.1017 27.2433 24.2183 26.9549 24.5483C26.6666 24.8783 26.3766 24.92 25.8816 24.6717C25.3866 24.4233 23.79 23.9017 21.8983 22.2133C20.4266 20.9 19.4316 19.2783 19.1433 18.7817C18.855 18.2867 19.1133 18.0183 19.36 17.7717C19.5833 17.55 19.855 17.1933 20.1033 16.9033C20.355 16.6167 20.4366 16.41 20.6033 16.0783C20.7683 15.7483 20.6866 15.4583 20.5616 15.21C20.4366 14.9633 19.4466 12.525 19.035 11.5333C18.6316 10.5683 18.2233 10.6983 17.92 10.6833L16.97 10.6667C16.64 10.6667 16.1033 10.79 15.65 11.2867C15.1966 11.7833 13.9166 12.98 13.9166 15.4183C13.9166 17.8567 15.6916 20.2117 15.9383 20.5417C16.1866 20.8717 19.43 25.875 24.3983 28.02C25.58 28.53 26.5033 28.835 27.2216 29.0633C28.4083 29.44 29.4883 29.3867 30.3416 29.26C31.2933 29.1183 33.2716 28.0617 33.6849 26.905C34.0983 25.7467 34.0983 24.755 33.9733 24.5483Z" fill="#25D366"/>
</g>
<defs>
<filter id="filter0_d_61_918" x="0" y="0" width="48" height="48" filterUnits="userSpaceOnUse" color-interpolation-filters="sRGB">
<feFlood flood-opacity="0" result="BackgroundImageFix"/>
<feColorMatrix in="SourceAlpha" type="matrix" values="0 0 0 0 0 0 0 0 0 0 0 0 0 0 0 0 0 0 127 0" result="hardAlpha"/>
<feOffset dy="4"/>
<feGaussianBlur stdDeviation="2"/>
<feComposite in2="hardAlpha" operator="out"/>
<feColorMatrix type="matrix" values="0 0 0 0 0 0 0 0 0 0 0 0 0 0 0 0 0 0 0.25 0"/>
<feBlend mode="normal" in2="BackgroundImageFix" result="effect1_dropShadow_61_918"/>
<feBlend mode="normal" in="SourceGraphic" in2="effect1_dropShadow_61_918" result="shape"/>
</filter>
</defs>
</svg>
